<svg width="254" height="76" viewBox="0 0 254 76" fill="none" xmlns="http://www.w3.org/2000/svg">
<path d="M0 0H254V76H0V0Z" fill="white"/>
<path fill-rule="evenodd" clip-rule="evenodd" d="M46.5069 2.51471C38.9425 0.838236 31.6583 0 25.4947 0C20.1717 0 15.9692 0.558822 13.1676 1.95588C11.4866 2.79412 9.24535 4.47059 8.40486 7.82353C7.56438 11.1765 8.96519 13.6912 10.0858 14.8088C11.7668 16.4853 14.0081 18.4412 17.37 20.1176C11.2065 21.5147 6.16357 23.1912 3.36195 25.1471C1.68097 26.2647 0 28.2206 0 31.8529V62.8676C0 66.5 1.68097 68.4559 3.08178 69.5735C8.1247 73.2059 21.0122 76 35.8607 76C50.7093 76 63.5968 73.4853 68.6397 69.5735C70.3207 68.4559 72.0016 66.5 72.0016 62.8676V31.8529C72.0016 31.2941 72.0016 30.4559 71.7215 29.8971C72.562 29.6177 73.4025 29.3382 73.9628 29.0588C75.6438 28.2206 77.885 26.5441 78.7255 23.1912C79.566 19.8382 78.1652 17.3235 77.0446 15.9265C73.1223 11.1765 61.0753 5.58824 46.5069 2.51471Z" fill="#50A135"/>
<path d="M15.4087 8.10291C14.5682 12.0147 26.6152 17.8823 42.5844 21.5147C58.2735 24.8676 72.0014 24.5882 72.8419 20.6764C73.6824 16.7647 61.6354 10.897 45.6662 7.26468C29.697 3.91174 16.2492 4.19115 15.4087 8.10291Z" fill="#F1BF70"/>
<path fill-rule="evenodd" clip-rule="evenodd" d="M192.751 8.38232C192.751 5.02938 189.95 2.23526 186.588 2.23526C183.226 2.23526 180.424 5.02938 180.424 8.38232C180.424 11.7353 183.226 14.5294 186.588 14.5294C189.95 14.5294 192.751 11.7353 192.751 8.38232ZM253.827 32.9706C253.827 22.0735 247.383 18.1617 239.818 18.1617C235.336 18.1617 231.974 19.8382 229.172 23.4706C226.931 20.1176 223.289 18.4411 218.806 18.4411C210.962 18.4411 204.798 22.3529 204.798 33.25V68.7353H211.802V33.25C211.802 28.5 213.763 25.4264 218.526 25.4264C222.448 25.4264 225.81 27.1029 225.81 34.9264V68.7353H232.814V34.9264C232.814 27.1029 236.176 25.4264 240.099 25.4264C244.861 25.4264 246.822 28.2206 246.822 33.25V68.4558H253.827V32.9706ZM167.817 32.1323C167.817 23.4706 162.214 18.1617 154.089 18.1617C147.925 18.1617 143.162 21.2353 141.201 26.8235L147.365 29.6176C149.046 26.8235 151.007 25.147 154.369 25.147C158.291 25.147 161.093 28.2206 161.093 32.1323V55.3235C161.093 59.2353 158.011 62.3088 154.089 62.3088C148.766 62.3088 146.524 58.397 146.524 54.7647C146.524 50.5735 149.606 46.1029 156.05 45.8235V38.8382C148.766 39.1176 139.52 44.147 139.52 55.3235C139.52 62.3088 144.563 69.0147 154.089 69.0147C157.171 69.0147 159.692 67.897 161.933 65.9411L162.214 68.4558H167.817V32.1323ZM189.95 68.4558V19.8382H182.946V68.4558H189.95ZM128.594 23.75C129.435 22.0735 128.874 19.8382 126.633 19.8382H100.858V26.8235H119.629C119.629 26.8235 100.858 64.2647 100.578 64.5441C99.4572 66.2206 100.298 68.4558 102.539 68.4558H128.594V61.4706H109.823C109.823 61.4706 128.314 24.8676 128.594 23.75Z" fill="#50A135"/>
<path d="M11.7666 57.8381C8.68481 58.9558 6.72367 60.3528 6.72367 62.0293C6.72367 65.9411 19.8913 69.294 36.1407 69.294C52.3901 69.294 65.5577 65.9411 65.5577 62.0293C65.5577 60.6322 63.5966 59.2352 60.5148 57.8381C54.0711 59.5146 45.6662 60.6322 36.1407 60.6322C26.6152 60.6322 18.2103 59.5146 11.7666 57.8381Z" fill="white"/>
<path d="M11.7666 42.1911C8.68481 43.3088 6.72367 44.7058 6.72367 46.3823C6.72367 50.2941 19.8913 53.647 36.1407 53.647C52.3901 53.647 65.5577 50.2941 65.5577 46.3823C65.5577 44.9852 63.5966 43.5882 60.5148 42.1911C54.0711 43.8676 45.6662 44.9852 36.1407 44.9852C26.6152 44.9852 18.2103 43.8676 11.7666 42.1911Z" fill="white"/>
<path d="M40.9039 28.2205C35.5808 27.1029 30.5379 25.4264 26.0553 24.0294C14.8488 25.147 7.0043 27.6617 7.0043 30.7352C7.0043 34.647 20.1719 37.9999 36.4213 37.9999C52.6707 37.9999 65.8383 34.647 65.8383 30.7352C58.8343 31.0146 50.1493 30.4558 40.9039 28.2205Z" fill="white"/>
</svg>
